<?xml version="1.0" encoding="UTF-8" standalone="no"?>
<!DOCTYPE svg PUBLIC "-//W3C//DTD SVG 1.1//EN" "http://www.w3.org/Graphics/SVG/1.1/DTD/svg11.dtd">
<svg width="100%" height="100%" viewBox="0 0 1502 1502" version="1.1" xmlns="http://www.w3.org/2000/svg" xmlns:xlink="http://www.w3.org/1999/xlink" xml:space="preserve" xmlns:serif="http://www.serif.com/" style="fill-rule:evenodd;clip-rule:evenodd;stroke-linejoin:round;stroke-miterlimit:2;">
    <g transform="matrix(1.083728,0,0,0.920068,-533.501275,-214.603213)">
        <path d="M1151.724,414.943C1171.463,378.519 1202.734,378.448 1219.877,414.411L1822.2,1617.923C1842.67,1660.407 1832.634,1711.452 1794.068,1711.452L572.464,1711.452C534.059,1711.452 530.297,1660.65 548.458,1621.475L1151.724,414.943ZM1130.721,1198.372C1133.696,1234.581 1138.654,1261.543 1145.596,1279.259C1152.537,1296.974 1164.933,1305.832 1182.783,1305.832C1200.302,1305.832 1212.863,1296.682 1220.465,1278.383C1228.068,1260.083 1233.026,1233.802 1235.34,1199.54L1256.661,911.617C1258.974,885.142 1260.131,859.055 1260.131,833.359C1260.131,789.752 1255.338,756.365 1245.752,733.199C1236.167,710.033 1217.16,698.45 1188.733,698.45C1165.264,698.45 1146.34,707.502 1131.961,725.607C1117.582,743.711 1110.392,768.922 1110.392,801.237C1110.392,824.988 1111.88,864.117 1114.855,918.626L1130.721,1198.372ZM1185.758,1582.658C1205.591,1582.658 1222.945,1574.871 1237.819,1559.297C1252.694,1543.723 1260.131,1522.309 1260.131,1495.054C1260.131,1470.915 1252.777,1450.377 1238.067,1433.44C1223.358,1416.504 1205.591,1408.035 1184.766,1408.035C1163.941,1408.035 1146.34,1416.504 1131.961,1433.44C1117.582,1450.377 1110.392,1470.915 1110.392,1495.054C1110.392,1522.698 1117.912,1544.21 1132.952,1559.589C1147.992,1574.968 1165.594,1582.658 1185.758,1582.658Z" style="fill:rgb(220,220,220);"/>
    </g>
</svg>
